<?xml version="1.0" encoding="UTF-8"?>
<svg xmlns="http://www.w3.org/2000/svg" version="1.1" viewBox="0 0 540.96 75.18">
  <!-- Generator: Adobe Illustrator 29.6.1, SVG Export Plug-In . SVG Version: 2.1.1 Build 9)  -->
  <defs>
    <style>
      .st0 {
        fill: #333;
        fill-rule: evenodd;
      }
    </style>
  </defs>
  <g id="Camada_1" image-rendering="optimizeQuality" shape-rendering="geometricPrecision" text-rendering="geometricPrecision">
    <g id="Camada_x5F_1">
      <path class="st0" d="M25.76,2.21h64.43c13.28,0,24.13,10.84,24.13,24.13v11.18c0,13.28-10.84,24.13-24.13,24.13H25.76c-4.54,0-8.8-1.25-12.43-3.46v13.91H1.63V26.34C1.63,13.05,12.48,2.21,25.76,2.21ZM428.24,72.09h86.97c13.28,0,24.13-9.31,24.13-20.66h0c0-7.21-4.26-12.94-10.16-16.8-3.07-1.99-6.19-2.9-9.76-2.9l-1.93-.06c-.74-.06-1.48-.06-2.27-.06h-64.09c-14.19-1.93-12.83-18.22,2.1-18.22l85.15-.23c.34,0,.68,0,.97.06V2.21h-86.97c-13.28,0-24.13,9.31-24.13,20.66h0c0,7.21,4.26,13,10.16,16.8,3.07,1.99,6.19,2.9,9.76,2.95h1.93c.74.06,1.48.06,2.27.06h64.09c14.19,1.93,12.83,18.22-2.1,18.22l-85.15.23h-.97v10.96ZM290.97,72.09h86.97c13.28,0,24.18-9.31,24.18-20.66h0c0-7.21-4.26-12.94-10.22-16.8-3.01-1.99-6.19-2.9-9.71-2.9l-1.93-.06c-.79-.06-1.53-.06-2.33-.06h-64.09c-14.13-1.93-12.83-18.22,2.1-18.22l85.15-.23c.34,0,.68,0,1.02.06V2.21h-87.02c-13.28,0-24.13,9.31-24.13,20.66h0c0,7.21,4.26,13,10.16,16.8,3.07,1.99,6.19,2.9,9.76,2.95h1.93c.74.06,1.53.06,2.27.06h64.09c14.19,1.93,12.83,18.22-2.1,18.22l-85.15.23h-.97s0,10.96,0,10.96ZM147.01,25.09h0v.23c-.06.51-.06,1.02-.06,1.53h0c0,.45,0,.97.06,1.48v43.77h11.69v-24.18c3.63,2.21,7.89,3.52,12.38,3.52h64.43c4.54,0,8.8-1.31,12.43-3.52v24.18h11.69V26.85h0v-1.76h-.06c-.91-12.77-11.41-22.88-24.07-22.88h-64.43c-12.66,0-23.16,10.1-24.07,22.88ZM234.66,12.71l-62.67.23c-7.32.06-13.28,6.07-13.28,13.51v1.25c0,7.38,5.96,13.51,13.28,13.51l62.67-.28c7.32,0,13.28-6.07,13.28-13.51v-1.19c0-7.44-5.96-13.57-13.28-13.51ZM26.61,12.49l62.67.28c7.32,0,13.28,5.96,13.28,13.23v12.32c0,7.32-5.96,13.34-13.28,13.28l-62.67-.23c-7.32-.06-13.28-5.96-13.28-13.28v-12.32c0-7.32,5.96-13.28,13.28-13.28Z"/>
    </g>
  </g>
</svg>